<?xml version="1.0" encoding="UTF-8" standalone="no"?>
<svg width="50px" height="30px" viewBox="0 0 50 30" version="1.1" xmlns="http://www.w3.org/2000/svg" xmlns:xlink="http://www.w3.org/1999/xlink">
    <!-- Generator: Sketch 41.2 (35397) - http://www.bohemiancoding.com/sketch -->
    <title>Cash</title>
    <desc>Created with Sketch.</desc>
    <defs></defs>
    <g id="Components" stroke="none" stroke-width="1" fill="none" fill-rule="evenodd">
        <g id="Payment-icons" transform="translate(-229.000000, -545.000000)">
            <g id="Cash" transform="translate(229.000000, 545.000000)">
                <g id="Group-2-Copy" fill="#797876">
                    <path d="M0,28.008383 L0,1.99161703 C0,0.89784041 0.891362589,0 1.99091407,0 L48.0090859,0 C49.1109357,0 50,0.891677316 50,1.99161703 L50,28.008383 C50,29.1021596 49.1086374,30 48.0090859,30 L1.99091407,30 C0.889064278,30 0,29.1083227 0,28.008383 Z" id="Rectangle"></path>
                </g>
                <g id="Group-3" transform="translate(15.000000, 5.000000)" fill="#FFFFFF">
                    <path d="M9.66796875,19.2773438 C7.01170547,19.2773438 4.7363376,18.3300876 2.84179688,16.4355469 C0.947256152,14.5410062 0,12.2656383 0,9.609375 C0,6.95311172 0.947256152,4.68750937 2.84179688,2.8125 C4.7363376,0.937490625 7.01170547,0 9.66796875,0 C12.324232,0 14.5898344,0.937490625 16.4648438,2.8125 C18.3398531,4.68750937 19.2773438,6.95311172 19.2773438,9.609375 C19.2773438,12.2656383 18.3398531,14.5410062 16.4648438,16.4355469 C14.5898344,18.3300876 12.324232,19.2773438 9.66796875,19.2773438 Z M9.7265625,8.671875 C9.45312363,8.6328123 9.15039229,8.57421914 8.81835938,8.49609375 C8.48632646,8.41796836 8.22265723,8.28125098 8.02734375,8.0859375 C7.98828105,8.00781211 7.94921895,7.94921895 7.91015625,7.91015625 C7.87109355,7.87109355 7.8515625,7.83203145 7.8515625,7.79296875 L7.76367188,7.6171875 C7.74414053,7.5781248 7.734375,7.5390627 7.734375,7.5 C7.734375,7.22656113 7.92968555,6.96289189 8.3203125,6.70898438 C8.71093945,6.45507686 9.19921582,6.328125 9.78515625,6.328125 C10.2929713,6.328125 10.712889,6.41601475 11.0449219,6.59179688 C11.3769548,6.767579 11.6015619,6.95312402 11.71875,7.1484375 L13.4765625,6.03515625 C13.2031236,5.56640391 12.8222681,5.18554834 12.3339844,4.89257812 C11.8457007,4.59960791 11.3085967,4.41406289 10.7226562,4.3359375 L10.7226562,3.8671875 C10.7226562,3.55468594 10.6152354,3.30078223 10.4003906,3.10546875 C10.1855458,2.91015527 9.94140762,2.8125 9.66796875,2.8125 C9.35546719,2.8125 9.10156348,2.91015527 8.90625,3.10546875 C8.71093652,3.30078223 8.61328125,3.55468594 8.61328125,3.8671875 L8.61328125,4.3359375 C7.75390195,4.57031367 7.05078398,4.97070029 6.50390625,5.53710938 C5.95702852,6.10351846 5.68359375,6.75780879 5.68359375,7.5 C5.68359375,7.73437617 5.7031248,7.94921777 5.7421875,8.14453125 C5.7812502,8.33984473 5.83984336,8.49609316 5.91796875,8.61328125 C5.95703145,8.73046934 6.02539014,8.86718672 6.12304688,9.0234375 C6.22070361,9.17968828 6.32812441,9.33593672 6.4453125,9.4921875 C6.87500215,9.96093984 7.37304404,10.2832022 7.93945312,10.4589844 C8.50586221,10.6347665 9.02343516,10.7421873 9.4921875,10.78125 C9.84375176,10.8203127 10.1757797,10.8789059 10.4882812,10.9570312 C10.8007828,11.0351566 11.0546865,11.171874 11.25,11.3671875 C11.3281254,11.4453129 11.3964841,11.5429682 11.4550781,11.6601562 C11.5136722,11.7773443 11.5429688,11.8749996 11.5429688,11.953125 C11.5429688,12.2265639 11.3476582,12.4902331 10.9570312,12.7441406 C10.5664043,12.9980481 10.0781279,13.125 9.4921875,13.125 C9.02343516,13.125 8.62304854,13.0371103 8.29101562,12.8613281 C7.95898271,12.685546 7.73437559,12.500001 7.6171875,12.3046875 L5.80078125,13.4179688 C6.11328281,13.8476584 6.51366943,14.2089829 7.00195312,14.5019531 C7.49023682,14.7949233 8.02734082,14.9999994 8.61328125,15.1171875 L8.61328125,15.8203125 C8.61328125,16.1328141 8.71093652,16.3867178 8.90625,16.5820312 C9.10156348,16.7773447 9.35546719,16.875 9.66796875,16.875 C9.94140762,16.875 10.1855458,16.7773447 10.4003906,16.5820312 C10.6152354,16.3867178 10.7226562,16.1328141 10.7226562,15.8203125 L10.7226562,15.0585938 C11.5820355,14.8632803 12.2851535,14.4824247 12.8320312,13.9160156 C13.378909,13.3496065 13.6523438,12.6953162 13.6523438,11.953125 C13.6523438,11.6015607 13.564454,11.2304707 13.3886719,10.8398438 C13.2128897,10.4492168 12.9882826,10.1171889 12.7148438,9.84375 C12.2851541,9.41406035 11.8066433,9.13086006 11.2792969,8.99414062 C10.7519505,8.85742119 10.2343775,8.75000039 9.7265625,8.671875 Z" id="p"></path>
                </g>
            </g>
        </g>
    </g>
</svg>