<?xml version="1.0" encoding="UTF-8" standalone="no"?>
<svg width="50px" height="30px" viewBox="0 0 50 30" version="1.1" xmlns="http://www.w3.org/2000/svg" xmlns:xlink="http://www.w3.org/1999/xlink">
    <!-- Generator: Sketch 41.2 (35397) - http://www.bohemiancoding.com/sketch -->
    <title>Master Card</title>
    <desc>Created with Sketch.</desc>
    <defs></defs>
    <g id="Components" stroke="none" stroke-width="1" fill="none" fill-rule="evenodd">
        <g id="Payment-icons" transform="translate(-229.000000, -257.000000)">
            <g id="Master-Card" transform="translate(229.000000, 257.000000)">
                <rect id="Rectangle" fill="#000000" x="0" y="0" width="50" height="30" rx="4"></rect>
                <g id="Group" transform="translate(8.500000, 2.000000)">
                    <path d="M29.18,24.1664486 C29.18,23.661215 29.5001869,23.2569159 30.0166355,23.2569159 C30.5106542,23.2569159 30.8361682,23.6443925 30.8361682,24.1664486 C30.8361682,24.6885047 30.5106542,25.0759813 30.0166355,25.0759813 C29.5001869,25.0759813 29.18,24.6716822 29.18,24.1664486 Z M31.3528972,24.1664486 L31.3528972,21.7468224 L30.8137383,21.7468224 L30.8137383,23.1503738 C30.6286916,22.908972 30.3253271,22.7572897 29.9437383,22.7572897 C29.1914953,22.7572897 28.6186916,23.3469159 28.6186916,24.1664486 C28.6186916,24.9862617 29.1914953,25.5756075 29.9437383,25.5756075 C30.3253271,25.5756075 30.6286916,25.4242056 30.8137383,25.1828037 L30.8137383,25.5083178 L31.3528972,25.5083178 L31.3528972,24.1664486 Z M23.7623364,24.1664486 C23.7623364,23.661215 24.0825234,23.2569159 24.598972,23.2569159 C25.0929907,23.2569159 25.4185047,23.6443925 25.4185047,24.1664486 C25.4185047,24.6885047 25.0929907,25.0759813 24.598972,25.0759813 C24.0825234,25.0759813 23.7623364,24.6716822 23.7623364,24.1664486 Z M25.9349533,24.1664486 L25.9349533,22.8245794 L25.3960748,22.8245794 L25.3960748,23.1503738 C25.2107477,22.908972 24.9076636,22.7572897 24.5257944,22.7572897 C23.7735514,22.7572897 23.201028,23.3469159 23.201028,24.1664486 C23.201028,24.9862617 23.7735514,25.5756075 24.5257944,25.5756075 C24.9076636,25.5756075 25.2107477,25.4242056 25.3960748,25.1828037 L25.3960748,25.5083178 L25.9349533,25.5083178 L25.9349533,24.1664486 Z M32.2798131,25.3070093 L32.2798131,25.3731776 L32.3403738,25.3731776 C32.3543925,25.3731776 32.3653271,25.3703738 32.3737383,25.3647664 C32.3818692,25.3594393 32.3860748,25.351028 32.3860748,25.3398131 C32.3860748,25.3288785 32.3818692,25.3207477 32.3737383,25.3151402 C32.3653271,25.3098131 32.3543925,25.3070093 32.3403738,25.3070093 L32.2798131,25.3070093 Z M32.3409346,25.2607477 C32.3728972,25.2607477 32.3972897,25.267757 32.4146729,25.2820561 C32.4317757,25.2960748 32.4401869,25.3154206 32.4401869,25.3398131 C32.4401869,25.3602804 32.4334579,25.3771028 32.4197196,25.3902804 C32.4059813,25.4037383 32.3866355,25.4118692 32.3614019,25.4149533 L32.4421495,25.5083178 L32.3790654,25.5083178 L32.3039252,25.415514 L32.2798131,25.415514 L32.2798131,25.5083178 L32.2268224,25.5083178 L32.2268224,25.2607477 L32.3409346,25.2607477 Z M32.3252336,25.5929907 C32.3541121,25.5929907 32.3807477,25.5876636 32.4057009,25.576729 C32.4303738,25.5657944 32.452243,25.5509346 32.471028,25.5324299 C32.4898131,25.5136449 32.5043925,25.4917757 32.5150467,25.4665421 C32.5257009,25.441028 32.531028,25.4141121 32.531028,25.385514 C32.531028,25.3566355 32.5257009,25.3297196 32.5150467,25.304486 C32.5043925,25.2792523 32.4898131,25.2573832 32.471028,25.2385981 C32.452243,25.2198131 32.4303738,25.2052336 32.4057009,25.1945794 C32.3807477,25.1839252 32.3541121,25.1785981 32.3252336,25.1785981 C32.2960748,25.1785981 32.2688785,25.1839252 32.2433645,25.1945794 C32.2181308,25.2052336 32.1959813,25.2198131 32.1771963,25.2385981 C32.1584112,25.2573832 32.1438318,25.2792523 32.1331776,25.304486 C32.1225234,25.3297196 32.1171963,25.3566355 32.1171963,25.385514 C32.1171963,25.4141121 32.1225234,25.441028 32.1331776,25.4665421 C32.1438318,25.4917757 32.1584112,25.5136449 32.1771963,25.5324299 C32.1959813,25.5509346 32.2181308,25.5657944 32.2433645,25.576729 C32.2688785,25.5876636 32.2960748,25.5929907 32.3252336,25.5929907 Z M32.3252336,25.1191589 C32.3628037,25.1191589 32.3978505,25.1261682 32.4309346,25.1399065 C32.4637383,25.1539252 32.4923364,25.1729907 32.5170093,25.1971028 C32.5416822,25.221215 32.561028,25.2495327 32.5750467,25.2820561 C32.5893458,25.3142991 32.5963551,25.348785 32.5963551,25.385514 C32.5963551,25.4219626 32.5893458,25.4564486 32.5750467,25.4886916 C32.561028,25.5209346 32.5416822,25.548972 32.5170093,25.5730841 C32.4923364,25.5971963 32.4637383,25.6165421 32.4309346,25.6305607 C32.3978505,25.6448598 32.3628037,25.6518692 32.3252336,25.6518692 C32.2871028,25.6518692 32.251215,25.6448598 32.2181308,25.6305607 C32.1847664,25.6165421 32.1558879,25.5971963 32.1314953,25.5730841 C32.1071028,25.548972 32.087757,25.5209346 32.0737383,25.4886916 C32.0594393,25.4564486 32.0524299,25.4219626 32.0524299,25.385514 C32.0524299,25.348785 32.0594393,25.3142991 32.0737383,25.2820561 C32.087757,25.2495327 32.1071028,25.221215 32.1314953,25.1971028 C32.1558879,25.1729907 32.1847664,25.1539252 32.2181308,25.1399065 C32.251215,25.1261682 32.2871028,25.1191589 32.3252336,25.1191589 Z M28.001028,22.7572897 C27.6642991,22.7572897 27.4228972,22.9145794 27.271215,23.1503738 L27.271215,22.8245794 L26.7379439,22.8245794 L26.7379439,25.5083178 L27.2768224,25.5083178 L27.2768224,23.9979439 C27.2768224,23.5546729 27.4901869,23.2681308 27.8720561,23.2681308 C27.9898131,23.2681308 28.1134579,23.2849533 28.2368224,23.3357009 L28.4165421,22.8301869 C28.2875701,22.7797196 28.1190654,22.7572897 28.001028,22.7572897 Z M7.28476636,24.1664486 C7.28476636,23.661215 7.6046729,23.2569159 8.1211215,23.2569159 C8.61542056,23.2569159 8.94093458,23.6443925 8.94093458,24.1664486 C8.94093458,24.6885047 8.61542056,25.0759813 8.1211215,25.0759813 C7.6046729,25.0759813 7.28476636,24.6716822 7.28476636,24.1664486 Z M9.45738318,24.1664486 L9.45738318,22.8245794 L8.91850467,22.8245794 L8.91850467,23.1503738 C8.73317757,22.908972 8.43009346,22.7572897 8.0482243,22.7572897 C7.29598131,22.7572897 6.72317757,23.3469159 6.72317757,24.1664486 C6.72317757,24.9862617 7.29598131,25.5756075 8.0482243,25.5756075 C8.43009346,25.5756075 8.73317757,25.4242056 8.91850467,25.1828037 L8.91850467,25.5083178 L9.45738318,25.5083178 L9.45738318,24.1664486 Z M16.7221495,23.2569159 C17.1208411,23.2569159 17.3902804,23.5151402 17.4295327,23.9362617 L15.9811215,23.9362617 C16.0315888,23.5431776 16.2898131,23.2569159 16.7221495,23.2569159 Z M16.7333645,22.7572897 C15.9474766,22.7572897 15.4085981,23.324486 15.4085981,24.1608411 C15.4085981,25.0142991 15.9699065,25.5756075 16.7728972,25.5756075 C17.1769159,25.5756075 17.5475701,25.4746729 17.8730841,25.1996262 L17.5868224,24.8009346 C17.362243,24.9806542 17.0759813,25.0815888 16.8065421,25.0815888 C16.4302804,25.0815888 16.0484112,24.8682243 15.9811215,24.3854206 L17.985514,24.3854206 C17.9911215,24.3125234 17.996729,24.2393458 17.996729,24.1608411 C17.9911215,23.324486 17.4856075,22.7572897 16.7333645,22.7572897 Z M20.5060748,24.1664486 C20.5060748,24.9806542 21.0508411,25.5756075 21.915514,25.5756075 C22.3195327,25.5756075 22.588972,25.4858879 22.8811215,25.2557009 L22.6001869,24.8345794 C22.381215,24.9918692 22.151028,25.0759813 21.8984112,25.0759813 C21.4324299,25.0703738 21.0676636,24.7053271 21.0676636,24.1664486 C21.0676636,23.6275701 21.4324299,23.2625234 21.8984112,23.2569159 C22.151028,23.2569159 22.381215,23.3413084 22.6001869,23.4983178 L22.8811215,23.0771963 C22.588972,22.8472897 22.3195327,22.7572897 21.915514,22.7572897 C21.0508411,22.7572897 20.5060748,23.3525234 20.5060748,24.1664486 Z M12.3657009,23.0379439 C12.0850467,22.8528972 11.6975701,22.7572897 11.2708411,22.7572897 C10.5914953,22.7572897 10.1759813,23.0771963 10.1759813,23.6107477 C10.1759813,24.0486916 10.4793458,24.3125234 11.0799065,24.3966355 L11.3549533,24.4358879 C11.6751402,24.4807477 11.848972,24.5931776 11.848972,24.7448598 C11.848972,24.9526168 11.6131776,25.0871963 11.2147664,25.0871963 C10.7936449,25.0871963 10.5185981,24.9582243 10.3220561,24.8065421 L10.0470093,25.2276636 C10.4454206,25.5195327 10.9226168,25.5756075 11.2091589,25.5756075 C11.9838318,25.5756075 12.4105607,25.2164486 12.4105607,24.7053271 C12.4105607,24.2337383 12.0850467,23.9923364 11.4954206,23.9082243 L11.2203738,23.868972 C10.967757,23.8353271 10.7431776,23.7565421 10.7431776,23.5771028 C10.7431776,23.3805607 10.9565421,23.2457009 11.2764486,23.2457009 C11.618785,23.2457009 11.9501869,23.3749533 12.1130841,23.4758879 L12.3657009,23.0379439 Z M19.8942991,22.7572897 C19.5572897,22.7572897 19.3158879,22.9145794 19.164486,23.1503738 L19.164486,22.8245794 L18.631215,22.8245794 L18.631215,25.5083178 L19.1700935,25.5083178 L19.1700935,23.9979439 C19.1700935,23.5546729 19.3834579,23.2681308 19.7650467,23.2681308 C19.8830841,23.2681308 20.0064486,23.2849533 20.1300935,23.3357009 L20.3098131,22.8301869 C20.1805607,22.7797196 20.0120561,22.7572897 19.8942991,22.7572897 Z M14.9142991,22.8245794 L13.9374766,22.8245794 L13.9374766,22.0106542 L13.3929907,22.0106542 L13.3929907,22.8245794 L12.8260748,22.8245794 L12.8260748,23.313271 L13.3929907,23.313271 L13.3929907,24.5819626 C13.3929907,25.2052336 13.6119626,25.5756075 14.3025234,25.5756075 C14.5551402,25.5756075 14.8470093,25.4971028 15.0323364,25.3678505 L14.8638318,24.8906542 C14.6897196,24.9918692 14.4990654,25.0423364 14.3473832,25.0423364 C14.055514,25.0423364 13.9374766,24.8626168 13.9374766,24.5931776 L13.9374766,23.313271 L14.9142991,23.313271 L14.9142991,22.8245794 Z M6.16747664,25.5083178 L6.16747664,23.8185047 C6.16747664,23.1840187 5.78588785,22.7628972 5.13457944,22.7572897 C4.79196262,22.7516822 4.43841121,22.8585047 4.19140187,23.234486 C4.00607477,22.9370093 3.71420561,22.7572897 3.30429907,22.7572897 C3.01803738,22.7572897 2.7146729,22.8357944 2.49570093,23.1503738 L2.49570093,22.8245794 L1.95682243,22.8245794 L1.95682243,25.5083178 L2.50158879,25.5083178 L2.50158879,23.9699065 C2.50158879,23.5039252 2.78224299,23.2569159 3.18065421,23.2569159 C3.56813084,23.2569159 3.7871028,23.5095327 3.7871028,23.9642991 L3.7871028,25.5083178 L4.33158879,25.5083178 L4.33158879,23.9699065 C4.33158879,23.5039252 4.62373832,23.2569159 5.01093458,23.2569159 C5.40962617,23.2569159 5.62299065,23.5095327 5.62299065,23.9642991 L5.62299065,25.5083178 L6.16747664,25.5083178 L6.16747664,25.5083178 Z" id="Fill-3" fill="#FFFFFF"></path>
                    <polygon id="Fill-4" fill="#FF5F00" points="11.7385047 18.2738318 21.4548598 18.2738318 21.4548598 2.40299065 11.7385047 2.40299065"></polygon>
                    <path d="M12.7416822,10.3384112 C12.7416822,7.1188785 14.2492523,4.25121495 16.5968224,2.40299065 C14.8798131,1.05158879 12.7136449,0.245233645 10.3590654,0.245233645 C4.78495327,0.245233645 0.266448598,4.76401869 0.266448598,10.3384112 C0.266448598,15.9130841 4.78495327,20.4321495 10.3590654,20.4321495 C12.7136449,20.4321495 14.8798131,19.625514 16.5968224,18.2741121 C14.2492523,16.4258879 12.7416822,13.5582243 12.7416822,10.3384112" id="Fill-5" fill="#EC001B"></path>
                    <path id="Fill-6" fill="#F89E1B"></path>
                    <path d="M32.9271963,10.3384112 C32.9271963,15.9130841 28.4086916,20.4321495 22.8345794,20.4321495 C20.48,20.4321495 18.3135514,19.625514 16.5968224,18.2741121 C18.9443925,16.4258879 20.4519626,13.5582243 20.4519626,10.3384112 C20.4519626,7.1188785 18.9443925,4.25121495 16.5968224,2.40299065 C18.3135514,1.05158879 20.48,0.245233645 22.8345794,0.245233645 C28.4086916,0.245233645 32.9271963,4.76401869 32.9271963,10.3384112" id="Fill-7" fill="#F89E1B"></path>
                </g>
            </g>
        </g>
    </g>
</svg>