<?xml version="1.0" encoding="UTF-8"?>
<svg width="63px" height="129px" viewBox="0 0 63 129" version="1.1" xmlns="http://www.w3.org/2000/svg" xmlns:xlink="http://www.w3.org/1999/xlink">
    <!-- Generator: Sketch 41.2 (35397) - http://www.bohemiancoding.com/sketch -->
    <title>Group 3 Copy 4</title>
    <desc>Created with Sketch.</desc>
    <defs>
        <linearGradient x1="32.7977359%" y1="88.119771%" x2="32.7977362%" y2="-6.07446856%" id="linearGradient-1">
            <stop stop-color="#FFFFFF" stop-opacity="0" offset="0%"></stop>
            <stop stop-color="#FFFFFF" offset="100%"></stop>
        </linearGradient>
    </defs>
    <g id="Page-1" stroke="none" stroke-width="1" fill="none" fill-rule="evenodd">
        <g id="Header-Footer-M-Portrait" transform="translate(-27.000000, -2100.000000)">
            <g id="Group-4" transform="translate(22.000000, 2046.000000)">
                <g id="Group-3">
                    <g id="Group-3-Copy-4" transform="translate(5.000000, 54.000000)">
                        <g id="Group-2">
                            <rect id="Rectangle-11" fill="#D9D8D8" x="0" y="0" width="63" height="128.930233" rx="6.912"></rect>
                            <rect id="Rectangle-10" fill="#3F3E3B" x="5.95945946" y="16.1162791" width="51.0810811" height="97.121787" rx="1.152"></rect>
                            <g id="Page-1" transform="translate(10.216216, 43.683599)">
                                <g id="Group">
                                    <polygon id="Fill-1" fill="#3F3E3B" points="0 42.2991738 42.4552196 42.2991738 42.4552196 0.000151468788 0 0.000151468788"></polygon>
                                    <path d="M8.59918074,21.1127194 C9.04446791,21.5145661 9.3009375,22.0836343 9.3009375,22.682239 L9.3009375,36.2597497 C11.2851943,35.8394238 13.3076098,35.5219452 15.3622551,35.3129183 L15.3622551,26.5028877 C15.3622551,25.6664771 16.0428801,24.9883513 16.8823733,24.9883513 C17.7218666,24.9883513 18.4024916,25.6664771 18.4024916,26.5028877 L18.405076,35.0845034 C19.3418666,35.0389113 20.2845861,35.015888 21.2327787,35.015888 C22.1808193,35.015888 23.1235389,35.0389113 24.0604814,35.0845034 L24.0630659,26.5028877 C24.0630659,25.6664771 24.7436909,24.9883513 25.5831841,24.9883513 C26.4226774,24.9883513 27.1033024,25.6664771 27.1033024,26.5028877 L27.1033024,35.3129183 C29.1579476,35.5219452 31.1803632,35.8394238 33.1646199,36.2597497 L33.1646199,22.682239 C33.1646199,22.0836343 33.4210895,21.5145661 33.8663767,21.1127194 C35.2297551,19.882187 36.0862753,18.1043978 36.0862753,16.1271242 C36.0862753,12.4212889 33.0902787,9.42069217 29.3707855,9.40236444 C28.6326943,9.39872919 27.9219679,9.51308813 27.2565456,9.72756793 C26.1429476,7.53929835 23.8637584,6.03960588 21.2327787,6.03960588 C18.601799,6.03960588 16.3224578,7.53929835 15.2090118,9.72756793 C14.5434375,9.51308813 13.8328632,9.39872919 13.094924,9.40236444 C9.37527872,9.42069217 6.37928209,12.4212889 6.37928209,16.1271242 C6.37928209,18.1043978 7.23580236,19.8823384 8.59918074,21.1127194" id="Fill-2" fill="#FFFFFF"></path>
                                </g>
                            </g>
                            <path d="M0,6.90904188 C0,3.09328341 3.10269112,0 6.90722582,0 L56.0927742,0 C59.9075297,0 61.6403248,2.78259116 59.9613791,6.2185731 L3.03862095,122.711659 C1.36043694,126.146083 0,125.838776 0,122.021191 L0,6.90904188 Z" id="Rectangle-11" fill-opacity="0.5" fill="url(#linearGradient-1)"></path>
                            <ellipse id="Oval" fill="#B2B2B1" cx="31.5" cy="120.872093" rx="5.10810811" ry="5.08935129"></ellipse>
                            <rect id="Rectangle-12" fill="#B2B2B1" x="25.9662162" y="7.20991432" width="11.0675676" height="3.39290086" rx="1.69645043"></rect>
                        </g>
                    </g>
                </g>
            </g>
        </g>
    </g>
</svg>